<?xml version="1.0" encoding="UTF-8"?> <svg xmlns="http://www.w3.org/2000/svg" id="Layer_1" x="0" y="0" version="1.1" viewBox="0 0 191.2 340.2" xml:space="preserve"><style></style><g id="Layer_2_00000093164192269895224260000017423003653270744236_"><g id="Icons"><path fill="none" d="M0 0h191.2v340.2H0z"></path><linearGradient id="SVGID_1_" x1="9709.4" x2="9903.021" y1="-3159.855" y2="-3159.855" gradientTransform="matrix(0 1 1 0 3220.91 -9655.62)" gradientUnits="userSpaceOnUse"><stop offset="0" stop-color="#00d3f7"></stop><stop offset="1" stop-color="#0d9cff"></stop></linearGradient><path fill="url(#SVGID_1_)" d="M122.1 70.7v159.8c0 9.4-7.6 16.9-16.9 16.9H16.9c-9.4 0-16.9-7.6-16.9-16.9V70.7c0-9.4 7.6-16.9 16.9-16.9h88.2c9.4 0 17 7.6 17 16.9z"></path><linearGradient id="SVGID_00000006667522915318262960000006676648311686526376_" x1="9825.89" x2="9941.979" y1="-3090.815" y2="-3090.815" gradientTransform="matrix(0 1 1 0 3220.92 -9655.61)" gradientUnits="userSpaceOnUse"><stop offset="0" stop-color="#f8cd53"></stop><stop offset="1" stop-color="#f5a146"></stop></linearGradient><path fill="url(#SVGID_00000006667522915318262960000006676648311686526376_)" d="M191.2 187.2v82.2c0 9.4-7.6 16.9-16.9 16.9H86c-9.4 0-16.9-7.6-16.9-16.9v-82.2c0-9.4 7.6-16.9 16.9-16.9h88.2c9.4 0 17 7.6 17 16.9z"></path></g></g></svg> 