<?xml version="1.0" encoding="UTF-8"?> <svg xmlns="http://www.w3.org/2000/svg" id="Layer_1" x="0" y="0" version="1.1" viewBox="0 0 276.1 340.2" xml:space="preserve"><style></style><g id="Layer_2_00000182524633900161179070000007382990205157703590_"><g id="Icons"><path fill="none" d="M0 0h276.1v340.2H0z"></path><linearGradient id="SVGID_1_" x1="98.78" x2="276.13" y1="169.959" y2="169.959" gradientTransform="matrix(1 0 0 -1 0 342)" gradientUnits="userSpaceOnUse"><stop offset="0" stop-color="#f5ca53"></stop><stop offset="1" stop-color="#f5a146"></stop></linearGradient><path fill="url(#SVGID_1_)" d="M252.1 134.6l-19.2 19.2-50.8-50.8c-15.3-15.3-40.2-15.3-55.5 0l-27.8 27.8 78.6 78.6-19.2 19.2c-5.5 5.5-5.5 14.4 0 19.9 2.6 2.6 6.2 4.1 9.9 4.1h97.4c5.8 0 10.6-4.7 10.6-10.5v-97.4c0-7.8-6.3-14.1-14.1-14.1-3.7-.1-7.2 1.4-9.9 4z"></path><linearGradient id="SVGID_00000178176762354234490020000014892251762505152685_" x1="0" x2="177.34" y1="173.888" y2="173.888" gradientTransform="matrix(1 0 0 -1 0 342)" gradientUnits="userSpaceOnUse"><stop offset="0" stop-color="#00d3f7"></stop><stop offset="1" stop-color="#0d9cff"></stop></linearGradient><path fill="url(#SVGID_00000178176762354234490020000014892251762505152685_)" d="M98.8 130.8l19.2-19.2c5.5-5.5 5.5-14.4 0-19.9-2.6-2.6-6.2-4.1-9.9-4.1H10.6C4.7 87.6 0 92.3 0 98.1v97.5c0 7.8 6.3 14.1 14.1 14 3.7 0 7.3-1.5 9.9-4.1l19.2-19.2L94 237.2c15.3 15.3 40.2 15.3 55.5 0l27.8-27.8-78.5-78.6z"></path></g></g></svg> 