<?xml version="1.0" encoding="UTF-8"?> <svg xmlns="http://www.w3.org/2000/svg" id="Layer_1" x="0" y="0" version="1.1" viewBox="0 0 199.3 340" xml:space="preserve"><style></style><g id="Layer_2_00000129173749078309674640000012952771758157053608_"><g id="Icons"><path fill="none" d="M0 0h199.3v340H0z"></path><linearGradient id="SVGID_1_" x1="0" x2="155.967" y1="195.623" y2="195.623" gradientTransform="matrix(1 0 0 -1 0 363.072)" gradientUnits="userSpaceOnUse"><stop offset="0" stop-color="#f5ca53"></stop><stop offset="1" stop-color="#f5a146"></stop></linearGradient><path fill="url(#SVGID_1_)" d="M156 135.1c0 47.6-36.8 103.4-59.8 133.6-7.6 10-21.9 12-32 4.3-1.6-1.2-3.1-2.7-4.3-4.3C36.8 238.5 0 182.7 0 135.1c0-43.1 34.9-78 77.9-78 43.1 0 78 34.9 78.1 78-.1 0-.1 0 0 0z"></path><linearGradient id="SVGID_00000174569649548004443380000007663596752128176021_" x1="112.637" x2="199.296" y1="233.963" y2="233.963" gradientTransform="matrix(1 0 0 -1 0 363.072)" gradientUnits="userSpaceOnUse"><stop offset="0" stop-color="#00d3f7"></stop><stop offset="1" stop-color="#0d9cff"></stop></linearGradient><circle cx="156" cy="129.1" r="43.3" fill="url(#SVGID_00000174569649548004443380000007663596752128176021_)"></circle></g></g></svg> 